HIERARCHY
ROOT Hips
{
	OFFSET 0.000000 0.000000 0.000000
	CHANNELS 6 Xposition Yposition Zposition Zrotation Yrotation Xrotation 
	JOINT LowerBack
	{
		OFFSET 0.000000 0.000000 0.000000
		CHANNELS 3 Zrotation Yrotation Xrotation
		JOINT Spine
		{
			OFFSET 0.028270 2.035590 -0.193380
			CHANNELS 3 Zrotation Yrotation Xrotation
			JOINT Spine1
			{
				OFFSET 0.056720 2.048850 -0.042750
				CHANNELS 3 Zrotation Yrotation Xrotation
				JOINT Neck
				{
					OFFSET 0.000000 0.000000 0.000000
					CHANNELS 3 Zrotation Yrotation Xrotation
					JOINT Neck1
					{
						OFFSET -0.054170 1.746240 0.172020
						CHANNELS 3 Zrotation Yrotation Xrotation
						JOINT Head
						{
							OFFSET 0.104070 1.761360 -0.123970
							CHANNELS 3 Zrotation Yrotation Xrotation
							End Site
							{
								OFFSET 0.000000 0.000000 0.000000
							}
						}
					}
				}
				JOINT LeftShoulder
				{
					OFFSET 0.000000 0.000000 0.000000
					CHANNELS 3 Zrotation Yrotation Xrotation
					JOINT LeftArm
					{
						OFFSET 3.362410 1.200890 -0.311210
						CHANNELS 3 Zrotation Yrotation Xrotation
						JOINT LeftForeArm
						{
							OFFSET 4.983000 -0.000000 -0.000000
							CHANNELS 3 Zrotation Yrotation Xrotation
							JOINT LeftHand
							{
								OFFSET 3.483560 -0.000000 -0.000000
								CHANNELS 3 Zrotation Yrotation Xrotation
								JOINT LeftFingerBase
								{
									OFFSET 0.000000 0.000000 0.000000
									CHANNELS 3 Zrotation Yrotation Xrotation
									JOINT LeftHandIndex1
									{
										OFFSET 0.715260 -0.000000 -0.000000
										CHANNELS 3 Zrotation Yrotation Xrotation
										End Site
										{
											OFFSET 0.000000 0.000000 0.000000
										}
									}
								}
								JOINT LThumb
								{
									OFFSET 0.000000 0.000000 0.000000
									CHANNELS 3 Zrotation Yrotation Xrotation
									End Site
									{
										OFFSET 0.000000 0.000000 0.000000
									}
								}
							}
						}
					}
				}
				JOINT RightShoulder
				{
					OFFSET 0.000000 0.000000 0.000000
					CHANNELS 3 Zrotation Yrotation Xrotation
					JOINT RightArm
					{
						OFFSET -3.136600 1.374050 -0.404650
						CHANNELS 3 Zrotation Yrotation Xrotation
						JOINT RightForeArm
						{
							OFFSET -5.241900 -0.000000 -0.000000
							CHANNELS 3 Zrotation Yrotation Xrotation
							JOINT RightHand
							{
								OFFSET -3.444170 -0.000000 -0.000000
								CHANNELS 3 Zrotation Yrotation Xrotation
								JOINT RightFingerBase
								{
									OFFSET 0.000000 0.000000 0.000000
									CHANNELS 3 Zrotation Yrotation Xrotation
									JOINT RightHandIndex1
									{
										OFFSET -0.622530 -0.000000 -0.000000
										CHANNELS 3 Zrotation Yrotation Xrotation
										End Site
										{
											OFFSET 0.000000 0.000000 0.000000
										}
									}
								}
								JOINT RThumb
								{
									OFFSET 0.000000 0.000000 0.000000
									CHANNELS 3 Zrotation Yrotation Xrotation
									End Site
									{
										OFFSET 0.000000 0.000000 0.000000
									}
								}
							}
						}
					}
				}
			}
		}
	}
}
}
MOTION
Frames: 17
Frame Time: 0.008333
3.165553 15.792630 0.447807 -5.170840 -87.497325 45.533468 -1.823945 -1.249818 6.182068 -0.617197 -1.062213 -2.369456 -3.388495 -0.980901 -3.411562 6.275885 -9.354021 -5.822903 -1.553610 -0.109866 -0.033152 0.000000 0.000000 0.000000 15.371515 1.845842 0.453769 -81.694907 -2.771823 6.783639 179.342488 -57.765101 179.885144 10.020156 -0.787087 -0.129625 -0.139251 0.697140 -0.000000 0.000000 0.000000 0.000000 0.000000 0.000000 0.000000 -5.561010 -3.105301 0.485741 73.631981 10.499198 15.292756 -179.628396 65.551526 179.848772 -15.155096 2.363590 -0.406005 0.305432 -0.640299 -0.000000 0.000000 0.000000 0.000000 0.000000 0.000000 0.000000 
3.160532 15.811992 0.453022 -9.000955 -87.757883 49.182860 -1.691509 -1.270689 6.192749 -0.595222 -1.086540 -2.365053 -3.424741 -1.004380 -3.409304 6.351078 -9.429666 -5.857738 -1.563025 -0.110101 -0.041376 0.000000 0.000000 0.000000 15.560633 1.824429 0.422982 -81.795132 -2.950862 6.845090 179.318483 -57.898575 179.884304 10.091462 -0.725120 -0.124932 -0.139297 0.696095 -0.000000 0.000000 0.000000 0.000000 0.000000 0.000000 0.000000 -5.446842 -3.186698 0.501397 73.731528 10.430405 15.550420 -179.629175 65.586422 179.849495 -15.095755 2.386848 -0.407499 0.303761 -0.640238 0.000000 0.000000 0.000000 0.000000 0.000000 0.000000 0.000000 
3.155004 15.833353 0.458952 -14.180154 -87.990160 54.170294 -1.521048 -1.297751 6.192404 -0.566017 -1.117964 -2.362027 -3.466044 -1.034988 -3.403383 6.435624 -9.518093 -5.895596 -1.572006 -0.110295 -0.049892 0.000000 0.000000 0.000000 15.796752 1.800244 0.384406 -81.876550 -3.188499 6.898272 179.295050 -58.045094 179.883468 10.156170 -0.663313 -0.120139 -0.139143 0.695490 -0.000000 0.000000 0.000000 0.000000 0.000000 0.000000 0.000000 -5.328966 -3.283805 0.518595 73.828777 10.351740 15.809559 -179.629918 65.612126 179.850310 -15.025584 2.418279 -0.409792 0.301814 -0.640405 0.000000 0.000000 0.000000 0.000000 0.000000 0.000000 0.000000 
3.148859 15.856691 0.465544 -21.324063 -88.174629 61.111997 -1.301778 -1.330270 6.180182 -0.527211 -1.155361 -2.361180 -3.512762 -1.071680 -3.396040 6.532091 -9.620979 -5.934718 -1.580560 -0.110485 -0.058105 0.000000 0.000000 0.000000 16.085724 1.759679 0.337215 -81.939059 -3.473831 6.925144 179.269921 -58.200950 179.882584 10.218431 -0.604325 -0.115546 -0.138731 0.695366 -0.000000 0.000000 0.000000 0.000000 0.000000 0.000000 0.000000 -5.203929 -3.396497 0.539077 73.916036 10.263450 16.072019 -179.631390 65.630228 179.851168 -14.950811 2.452127 -0.412283 0.299866 -0.640656 0.000000 0.000000 0.000000 0.000000 0.000000 0.000000 0.000000 
3.142179 15.882077 0.472866 -31.302482 -88.286571 70.876943 -1.018927 -1.363423 6.156887 -0.475317 -1.193195 -2.362343 -3.565850 -1.109004 -3.387228 6.639676 -9.737516 -5.974770 -1.588132 -0.110632 -0.065938 0.000000 0.000000 0.000000 16.424025 1.707236 0.281216 -81.971562 -3.813640 6.921576 179.243022 -58.367406 179.881521 10.290690 -0.541467 -0.110654 -0.138525 0.695511 -0.000000 0.000000 0.000000 0.000000 0.000000 0.000000 0.000000 -5.074344 -3.521355 0.562705 73.992966 10.166931 16.336691 -179.633546 65.644224 179.852064 -14.872234 2.486646 -0.414673 0.297923 -0.640936 0.000000 0.000000 0.000000 0.000000 0.000000 0.000000 0.000000 
3.135003 15.909519 0.480871 -45.032719 -88.299064 84.381139 -0.672313 -1.385116 6.123057 -0.409542 -1.218265 -2.365528 -3.626230 -1.133977 -3.377312 6.758128 -9.866988 -6.015078 -1.594038 -0.110692 -0.073192 0.000000 0.000000 0.000000 16.808373 1.648932 0.216641 -81.961371 -4.209361 6.881188 179.213545 -58.543529 179.880175 10.385362 -0.466469 -0.104764 -0.138917 0.695595 -0.000000 0.000000 0.000000 0.000000 0.000000 0.000000 0.000000 -4.942250 -3.651351 0.589425 74.059462 10.066132 16.604541 -179.636772 65.657683 179.852970 -14.792428 2.519647 -0.416860 0.296111 -0.641234 -0.000000 0.000000 0.000000 0.000000 0.000000 0.000000 0.000000 
3.127287 15.938995 0.489539 -62.518031 -88.191353 101.628436 -0.305593 -1.379040 6.078994 -0.338964 -1.214444 -2.370662 -3.693122 -1.130703 -3.366523 6.887468 -10.008731 -6.054807 -1.597492 -0.110616 -0.079652 0.000000 0.000000 0.000000 17.234667 1.592323 0.144305 -81.891310 -4.661127 6.798243 179.180930 -58.728565 179.878479 10.512063 -0.368971 -0.096979 -0.140202 0.695177 -0.000000 0.000000 0.000000 0.000000 0.000000 0.000000 0.000000 -4.807950 -3.778953 0.619217 74.117391 9.966805 16.878414 -179.641984 65.676126 179.853852 -14.714300 2.548033 -0.418344 0.294629 -0.641545 -0.000000 0.000000 0.000000 0.000000 0.000000 0.000000 0.000000 
3.118991 15.970407 0.498848 -81.475629 -87.961323 120.338060 -0.002382 -1.344771 6.025017 -0.283592 -1.184598 -2.377704 -3.763103 -1.101914 -3.355690 7.027501 -10.163075 -6.092515 -1.598573 -0.110430 -0.084929 0.000000 0.000000 0.000000 17.702966 1.530292 0.064726 -81.744605 -5.165562 6.662541 179.144854 -58.916926 179.876426 10.673498 -0.240277 -0.086201 -0.142489 0.693948 -0.000000 0.000000 0.000000 0.000000 0.000000 0.000000 0.000000 -4.668130 -3.906941 0.652761 74.169100 9.871305 17.162401 -179.649983 65.702869 179.854672 -14.642435 2.567778 -0.418921 0.293691 -0.641796 -0.000000 0.000000 0.000000 0.000000 0.000000 0.000000 0.000000 
3.119554 16.011089 0.487432 -134.061414 -87.041786 172.387490 -1.097221 -1.009352 6.214739 -0.564155 -0.823707 -2.334686 -3.870887 -0.735977 -3.375517 7.340212 -10.337131 -6.111758 -1.606753 -0.110571 -0.092611 0.000000 0.000000 0.000000 18.502586 1.575614 -0.033834 -81.299686 -5.741941 6.380206 179.054085 -59.111889 179.874036 10.892329 -0.057627 -0.070068 -0.143145 0.688657 -0.000000 0.000000 0.000000 0.000000 0.000000 0.000000 0.000000 -4.243110 -3.886918 0.717816 74.416698 9.928228 17.465580 -179.688203 65.828976 179.854880 -14.570932 2.584774 -0.419448 0.294476 -0.645109 -0.000000 0.000000 0.000000 0.000000 0.000000 0.000000 0.000000 
3.110382 16.046149 0.497977 -139.200395 -86.670172 177.261010 -0.936998 -1.064225 6.149249 -0.544500 -0.893076 -2.340831 -3.941707 -0.805974 -3.358485 7.490297 -10.514508 -6.146557 -1.604134 -0.110224 -0.096185 0.000000 0.000000 0.000000 19.025400 1.453589 -0.128830 -80.935103 -6.422235 6.156742 179.028780 -59.335518 179.871224 11.127558 0.171295 -0.048791 -0.149359 0.685531 -0.000000 0.000000 0.000000 0.000000 0.000000 0.000000 0.000000 -4.099257 -4.089539 0.755944 74.464510 9.813446 17.759228 -179.693158 65.865524 179.855675 -14.512827 2.587167 -0.417928 0.293504 -0.644501 -0.000000 0.000000 0.000000 0.000000 0.000000 0.000000 0.000000 
3.100708 16.082840 0.509140 -142.889845 -86.269180 -179.324547 -0.724707 -1.125407 6.075941 -0.515506 -0.970422 -2.346196 -4.021444 -0.884076 -3.333477 7.640651 -10.701606 -6.182994 -1.597948 -0.109613 -0.099793 0.000000 0.000000 0.000000 19.551682 1.349458 -0.228745 -80.432703 -7.220952 5.900325 179.012640 -59.586644 179.868087 11.397898 0.467091 -0.019616 -0.157754 0.680855 -0.000000 0.000000 0.000000 0.000000 0.000000 0.000000 0.000000 -3.965592 -4.307457 0.792532 74.512431 9.700430 18.058091 -179.696791 65.910059 179.856476 -14.456829 2.585010 -0.415907 0.292430 -0.643640 -0.000000 0.000000 0.000000 0.000000 0.000000 0.000000 0.000000 
3.090393 16.120967 0.520757 -145.723118 -85.842803 -176.775107 -0.481014 -1.191600 5.991626 -0.481706 -1.054287 -2.352221 -4.109794 -0.968921 -3.302730 7.796191 -10.901539 -6.218733 -1.589117 -0.108857 -0.102564 0.000000 0.000000 0.000000 20.088265 1.243261 -0.333222 -79.794863 -8.116282 5.580390 179.004535 -59.856295 179.864971 11.669615 0.816403 0.016655 -0.166955 0.674963 -0.000000 0.000000 0.000000 0.000000 0.000000 0.000000 0.000000 -3.831672 -4.541829 0.829715 74.549771 9.591484 18.368283 -179.700859 65.959575 179.857223 -14.410658 2.571527 -0.412686 0.291742 -0.642403 -0.000000 0.000000 0.000000 0.000000 0.000000 0.000000 0.000000 
3.079257 16.160285 0.532836 -147.998326 -85.392520 -174.789261 -0.212093 -1.261425 5.894441 -0.444782 -1.143391 -2.358496 -4.207757 -1.059203 -3.263184 7.955198 -11.113333 -6.255163 -1.577051 -0.107884 -0.104932 0.000000 0.000000 0.000000 20.623232 1.148647 -0.440771 -79.001284 -9.130949 5.196429 179.008224 -60.156314 179.861992 11.928632 1.214836 0.059923 -0.176737 0.668061 -0.000000 0.000000 0.000000 0.000000 0.000000 0.000000 0.000000 -3.699794 -4.792475 0.865835 74.580006 9.485420 18.687051 -179.704805 66.012608 179.857949 -14.370589 2.550046 -0.408566 0.291262 -0.640858 -0.000000 0.000000 0.000000 0.000000 0.000000 0.000000 0.000000 
3.067227 16.200606 0.545237 -149.915046 -84.919913 -173.165285 0.071954 -1.334150 5.781771 -0.407111 -1.236791 -2.365761 -4.316028 -1.154007 -3.215255 8.120902 -11.337704 -6.291389 -1.561920 -0.106728 -0.106527 0.000000 0.000000 0.000000 21.155963 1.057830 -0.550100 -78.045936 -10.260312 4.724688 179.024223 -60.492931 179.859391 12.148423 1.642866 0.107987 -0.186100 0.660725 -0.000000 0.000000 0.000000 0.000000 0.000000 0.000000 0.000000 -3.564539 -5.059225 0.901236 74.599214 9.379939 19.013381 -179.709132 66.063439 179.858639 -14.337498 2.519758 -0.403443 0.291115 -0.639019 -0.000000 0.000000 0.000000 0.000000 0.000000 0.000000 0.000000 
3.054499 16.241791 0.558035 -151.561403 -84.423725 -171.815594 0.374849 -1.407312 5.655456 -0.368545 -1.332197 -2.371437 -4.436848 -1.250855 -3.151365 8.287360 -11.572248 -6.332565 -1.541479 -0.105119 -0.109057 0.000000 0.000000 0.000000 21.656444 1.013430 -0.657957 -76.886066 -11.567169 4.184728 179.058328 -60.900273 179.856935 12.342762 2.100267 0.160749 -0.195973 0.653128 -0.000000 0.000000 0.000000 0.000000 0.000000 0.000000 0.000000 -3.437917 -5.342343 0.930981 74.621825 9.273405 19.338202 -179.711422 66.112490 179.859386 -14.300427 2.491750 -0.398523 0.290646 -0.637098 -0.000000 0.000000 0.000000 0.000000 0.000000 0.000000 0.000000 
3.040723 16.283582 0.570948 -153.060909 -83.906039 -170.611186 0.676389 -1.481564 5.509456 -0.333001 -1.429482 -2.379395 -4.568605 -1.349849 -3.080419 8.467425 -11.819659 -6.372599 -1.517809 -0.103338 -0.110368 0.000000 0.000000 0.000000 22.150496 0.957324 -0.763764 -75.550091 -12.979301 3.502019 179.102456 -61.365995 179.855102 12.465454 2.538572 0.211707 -0.203878 0.646531 -0.000000 0.000000 0.000000 0.000000 0.000000 0.000000 0.000000 -3.297722 -5.639918 0.960451 74.624677 9.160131 19.664618 -179.714905 66.149343 179.860097 -14.270484 2.455680 -0.392799 0.290657 -0.634939 -0.000000 0.000000 0.000000 0.000000 0.000000 0.000000 0.000000 
3.026113 16.325860 0.584042 -154.432767 -83.365366 -169.532171 0.981625 -1.554549 5.347834 -0.299994 -1.526334 -2.386427 -4.713406 -1.448443 -2.994675 8.655684 -12.077180 -6.417884 -1.488004 -0.101038 -0.112630 0.000000 0.000000 0.000000 22.602447 0.935596 -0.862566 -73.988309 -14.561652 2.695255 179.159699 -61.934849 179.853409 12.554274 2.961106 0.261164 -0.211345 0.640957 -0.000000 0.000000 0.000000 0.000000 0.000000 0.000000 0.000000 -3.157140 -5.952140 0.984008 74.624639 9.038634 19.981453 -179.716815 66.174460 179.860869 -14.235593 2.423721 -0.387478 0.290413 -0.632769 -0.000000 0.000000 0.000000 0.000000 0.000000 0.000000 0.000000 
